<?xml version="1.0" standalone="no"?>
<!DOCTYPE svg PUBLIC "-//W3C//DTD SVG 20010904//EN"
 "http://www.w3.org/TR/2001/REC-SVG-20010904/DTD/svg10.dtd">
<svg version="1.0" xmlns="http://www.w3.org/2000/svg"
 width="800.000000pt" height="800.000000pt" viewBox="0 0 800.000000 800.000000"
 preserveAspectRatio="xMidYMid meet">
<metadata>
Created by potrace 1.13, written by Peter Selinger 2001-2015
</metadata>
<g transform="translate(0.000000,800.000000) scale(0.100000,-0.100000)"
fill="#0F0F0F" stroke="none">
<path d="M0 4000 l0 -4000 4000 0 4000 0 0 4000 0 4000 -4000 0 -4000 0 0
-4000z m1217 3012 c71 -37 142 -133 192 -261 l22 -53 -48 35 c-67 49 -121 74
-173 82 -68 10 -145 -32 -187 -103 -53 -89 -68 -172 -68 -372 0 -188 12 -270
61 -425 122 -381 405 -659 728 -716 88 -15 263 -7 342 15 l62 18 41 -27 c22
-15 41 -30 41 -33 0 -3 -13 -26 -29 -51 -17 -25 -39 -66 -50 -91 -24 -55 -53
-207 -49 -257 l3 -37 -55 -13 c-82 -20 -282 -27 -370 -14 -203 32 -359 111
-505 256 -316 313 -513 855 -491 1350 12 269 77 473 195 607 98 111 228 145
338 90z m5804 -8 c251 -137 363 -631 258 -1143 -48 -236 -156 -500 -286 -695
-85 -127 -233 -278 -329 -335 -86 -50 -204 -94 -314 -117 -93 -18 -325 -15
-412 6 l-48 12 6 36 c7 46 -21 202 -47 261 -11 25 -33 66 -49 93 -17 27 -30
50 -30 52 0 2 20 16 45 30 45 27 45 27 97 11 72 -22 257 -31 343 -16 468 82
815 602 792 1191 -8 233 -55 351 -157 403 -46 23 -62 27 -100 22 -52 -8 -106
-33 -173 -82 l-48 -35 22 53 c62 158 146 255 243 280 54 14 132 3 187 -27z
m-4536 -479 c168 -258 424 -523 650 -673 l100 -67 -38 -34 c-53 -48 -79 -103
-85 -182 -7 -95 17 -159 83 -225 42 -42 65 -56 120 -73 73 -23 198 -28 270
-11 22 5 41 7 43 5 2 -2 -31 -20 -74 -42 -76 -37 -81 -38 -206 -42 -70 -1
-128 -7 -128 -11 0 -17 117 -32 210 -28 72 4 111 12 159 31 116 48 167 104
227 250 18 44 35 82 37 84 3 2 37 -10 76 -28 l71 -32 71 33 c82 37 75 41 115
-64 41 -105 106 -184 184 -223 79 -40 139 -53 235 -53 79 0 175 16 175 30 0 4
-58 10 -128 11 -125 4 -130 5 -206 42 -43 22 -76 40 -74 42 2 2 21 0 43 -5 72
-17 197 -12 270 11 210 65 277 337 119 479 l-39 35 100 66 c101 67 357 300
452 410 80 93 193 249 246 341 28 48 52 86 53 85 6 -7 -49 -392 -70 -489 -40
-182 -109 -381 -222 -636 -15 -34 -25 -65 -22 -68 4 -3 19 1 35 9 15 8 66 22
113 33 145 32 438 22 501 -17 18 -11 -16 -46 -136 -143 -148 -120 -143 -117
-198 -105 -51 11 -140 4 -135 -11 2 -5 26 -23 53 -42 57 -37 169 -179 215
-272 47 -93 43 -98 -47 -54 -89 42 -201 73 -323 88 -119 14 -230 13 -235 -2
-2 -7 -8 -78 -14 -158 -15 -230 -66 -350 -218 -510 -98 -104 -196 -174 -336
-240 -178 -85 -346 -120 -577 -120 -231 0 -399 35 -576 119 -128 61 -206 114
-302 205 -170 161 -227 296 -240 563 l-7 148 -115 -1 c-193 0 -370 -39 -487
-105 -46 -25 -53 -27 -53 -12 0 30 45 114 105 198 75 105 100 131 160 166 42
24 46 29 30 36 -25 10 -110 10 -152 1 -27 -6 -39 -1 -95 41 -86 65 -221 183
-225 197 -2 6 24 20 59 30 118 36 468 16 560 -32 16 -8 33 -13 36 -10 3 4 -5
30 -17 59 -172 388 -228 577 -271 913 -11 88 -22 177 -25 199 l-6 40 27 -50
c15 -27 50 -86 79 -130z m2252 -814 c81 -59 104 -182 50 -273 -60 -103 -222
-143 -392 -97 -47 13 -132 95 -165 159 l-21 41 63 27 c34 15 135 59 223 99 88
39 169 72 181 72 12 1 39 -12 61 -28z m-1189 -73 c125 -50 230 -94 235 -98 11
-9 -63 -120 -106 -157 -84 -74 -281 -82 -394 -17 -113 65 -134 233 -42 325 22
22 48 39 60 39 11 0 122 -41 247 -92z m-772 -1118 c15 -41 40 -99 57 -128 16
-29 28 -54 26 -56 -2 -2 -47 -27 -99 -56 -242 -134 -392 -271 -479 -439 -53
-102 -71 -178 -71 -297 0 -178 38 -280 166 -449 114 -151 134 -197 149 -360
l7 -70 -93 -24 c-52 -13 -126 -35 -165 -51 l-71 -27 -5 92 c-9 159 -60 242
-233 376 -57 44 -124 102 -149 130 -158 176 -177 463 -50 737 42 93 108 173
266 327 168 165 315 281 578 460 l114 78 12 -84 c7 -46 25 -118 40 -159z
m2676 123 c241 -168 371 -275 548 -453 153 -152 181 -186 217 -255 87 -167
122 -372 90 -522 -34 -160 -103 -253 -301 -408 -146 -115 -206 -222 -206 -371
l0 -72 -72 28 c-40 15 -115 38 -167 51 l-93 24 7 70 c15 163 35 209 150 360
125 164 165 271 165 442 0 122 -13 180 -65 288 -88 182 -260 340 -512 470 -40
20 -73 39 -73 42 0 3 8 17 19 31 55 79 108 220 126 339 8 51 -5 56 167 -64z
m-2257 -620 c33 -22 88 -54 122 -72 l62 -31 -29 -62 c-55 -118 -82 -232 -87
-363 -10 -226 31 -319 291 -665 205 -274 291 -563 290 -980 -1 -198 -13 -296
-60 -456 -113 -391 -391 -628 -764 -650 -258 -16 -440 113 -440 310 l0 41 26
-45 c29 -52 86 -113 129 -140 119 -74 306 -26 444 113 34 34 70 76 82 92 42
62 92 172 129 284 107 322 117 630 29 866 -31 83 -131 242 -274 435 -224 302
-300 450 -345 670 -52 250 3 518 152 747 l40 63 72 -59 c39 -32 98 -76 131
-98z m1874 58 c189 -314 199 -663 29 -1010 -51 -103 -112 -198 -227 -350 -120
-159 -208 -291 -257 -386 -136 -266 -101 -793 76 -1134 71 -136 165 -231 287
-289 62 -29 84 -34 145 -35 46 0 87 5 110 16 51 22 125 92 159 152 l29 50 0
-41 c0 -197 -182 -326 -440 -310 -119 7 -218 34 -339 92 -168 82 -311 249
-391 457 -121 311 -129 705 -25 1107 35 133 116 290 226 435 214 283 270 391
288 557 15 137 -26 343 -95 480 l-24 48 62 31 c79 40 186 112 263 177 33 28
63 47 67 44 4 -4 30 -45 57 -91z m-1444 -241 c44 -10 91 -20 105 -22 35 -4 39
-33 46 -393 6 -287 0 -443 -23 -587 l-5 -37 -119 160 c-132 179 -177 253 -209
349 -19 56 -21 80 -17 180 5 122 23 198 78 319 23 51 32 62 46 56 10 -3 54
-15 98 -25z m908 -64 c50 -127 67 -205 67 -312 0 -162 -37 -244 -224 -496
l-124 -167 -14 87 c-15 99 -19 740 -5 855 7 57 12 68 30 72 12 2 65 15 117 28
52 13 100 25 105 26 6 0 27 -41 48 -93z m-1460 -1213 c133 -180 235 -357 224
-387 -9 -24 -134 -44 -432 -71 -445 -40 -622 -76 -784 -160 -47 -25 -108 -63
-136 -86 -153 -126 -285 -390 -285 -568 0 -102 41 -227 102 -313 l19 -27 -49
20 c-119 49 -198 143 -226 270 -65 285 72 641 358 925 206 204 368 284 766
377 107 25 231 59 275 75 44 16 85 30 91 31 7 0 41 -38 77 -86z m2015 56 c48
-17 175 -51 282 -76 404 -94 563 -174 775 -387 169 -171 290 -373 341 -573 22
-85 25 -113 21 -213 -5 -130 -22 -196 -70 -267 -33 -49 -127 -121 -186 -141
l-32 -11 19 27 c60 84 102 211 102 307 0 119 -55 277 -140 408 -62 94 -125
158 -210 213 -172 111 -352 153 -850 199 -275 25 -415 46 -432 63 -17 17 30
117 115 247 52 78 168 235 174 235 2 0 44 -14 91 -31z m-3248 -193 l69 -32
-51 -44 -51 -44 -20 25 c-22 27 -70 121 -82 159 l-8 24 37 -28 c20 -15 68 -42
106 -60z m4425 -5 c-21 -44 -46 -88 -56 -97 -17 -15 -21 -14 -67 27 l-48 43
86 43 c48 23 93 49 100 58 27 33 21 3 -15 -74z"/>
<path d="M3934 5391 c-69 -42 -105 -123 -127 -282 -24 -167 -3 -236 108 -374
32 -38 62 -80 68 -92 5 -13 13 -23 17 -23 4 0 12 10 17 23 6 12 37 54 68 92
31 39 71 98 87 133 26 54 30 74 30 140 -1 141 -43 294 -95 350 -50 54 -118 67
-173 33z"/>
<path d="M4622 5613 c-49 -28 -78 -36 -130 -40 -86 -7 -112 -22 -112 -68 0
-43 29 -65 85 -65 83 0 228 53 275 100 26 26 25 65 0 90 -27 27 -44 25 -118
-17z"/>
<path d="M3260 5630 c-25 -25 -26 -64 0 -90 47 -47 192 -100 276 -100 52 0 87
26 87 64 0 44 -25 59 -108 67 -59 6 -90 15 -141 43 -75 42 -87 43 -114 16z"/>
</g>
</svg>
